<?xml version="1.0" encoding="utf-8"?>
<!-- Svg Vector Icons : http://www.onlinewebfonts.com/icon -->
<!DOCTYPE svg PUBLIC "-//W3C//DTD SVG 1.1//EN" "http://www.w3.org/Graphics/SVG/1.1/DTD/svg11.dtd">
<svg
  version="1.1"
  xmlns="http://www.w3.org/2000/svg"
  xmlns:xlink="http://www.w3.org/1999/xlink"
  x="0px"
  y="0px"
  viewBox="0 0 1000 1000"
  enable-background="new 0 0 1000 1000"
  xml:space="preserve"
>
  <metadata>Svg Vector Icons : http://www.onlinewebfonts.com/icon</metadata>
  <g>
    <g transform="translate(0.000000,511.000000) scale(0.100000,-0.100000)">
      <path
        d="M489.1,3356.5c-132.6-60.5-210.4-138.4-170.1-172.9C405.5,3102.9,4965.4,113.9,5000,113.9c23,0,815.7,510.2,1758.2,1135.6c942.5,622.6,1997.5,1320.1,2343.3,1547.8l631.3,415.1l-72.1,57.6c-193.1,149.9,57.6,141.2-4666.5,138.3C843.6,3408.4,598.6,3405.5,489.1,3356.5z"
      />
      <path
        d="M100,79.3c0-2052.2,8.6-2729.6,34.6-2818.9c20.2-66.3,86.5-170.1,152.8-236.4c230.6-230.6-129.7-213.3,4715.5-213.3c4709.8,0,4433.1-8.6,4660.8,164.3c54.8,40.4,129.7,141.2,167.2,224.8l69.2,149.9L9894.2,62l-8.6,2715.2l-2401-1585.3C5720.6,27.4,5060.5-393.4,5000-393.4c-60.5,0-714.8,415.1-2455.8,1565.1C1238.5,2033.5,154.8,2748.4,137.5,2759.9C108.6,2777.2,100,2232.4,100,79.3z"
      />
    </g>
  </g>
</svg>
